<svg width="107" height="50" viewBox="0 0 107 50" fill="none" xmlns="http://www.w3.org/2000/svg">
<circle cx="25" cy="25" r="25" fill="#3A0CA3"/>
<g clip-path="url(#clip0_8_2)">
<path d="M36.715 22.165L25.465 13.165C25.332 13.0585 25.1667 13.0005 24.9963 13.0005C24.8258 13.0005 24.6605 13.0585 24.5275 13.165L13.2775 22.165C13.1561 22.2624 13.0681 22.3951 13.0255 22.5447C12.9829 22.6944 12.9879 22.8536 13.0398 23.0002C13.0917 23.1469 13.188 23.2738 13.3152 23.3634C13.4425 23.4529 13.5944 23.5006 13.75 23.5H15.25V36.25C15.25 36.4489 15.329 36.6397 15.4697 36.7803C15.6103 36.921 15.8011 37 16 37H31V35.5H28V28.75C28 28.5511 27.921 28.3603 27.7803 28.2197C27.6397 28.079 27.4489 28 27.25 28H22.75C22.5511 28 22.3603 28.079 22.2197 28.2197C22.079 28.3603 22 28.5511 22 28.75V35.5H16.75V23.5H29.5V22H15.8875L25 14.71L34.1125 22H34C33.8011 22 33.6103 22.079 33.4697 22.2197C33.329 22.3603 33.25 22.5511 33.25 22.75V27.25H34.75V23.5H36.25C36.405 23.4991 36.5558 23.4502 36.6819 23.3601C36.8079 23.27 36.903 23.143 36.9539 22.9967C37.0049 22.8504 37.0093 22.6918 36.9665 22.5429C36.9237 22.394 36.8359 22.262 36.715 22.165ZM23.5 29.5H26.5V35.5H23.5V29.5Z" fill="white"/>
<path d="M31.75 32.9425L30.7825 31.975L29.725 33.0325L31.225 34.5325C31.3655 34.6722 31.5556 34.7506 31.7537 34.7506C31.9519 34.7506 32.142 34.6722 32.2825 34.5325L36.7825 30.0325L35.725 28.975L31.75 32.9425Z" fill="white"/>
</g>
<path d="M62.18 29.78H66.78V32H59.38V18.04H62.18V29.78ZM73.4797 32.18C72.413 32.18 71.453 31.9467 70.5997 31.48C69.7464 31 69.073 30.3267 68.5797 29.46C68.0997 28.5933 67.8597 27.5933 67.8597 26.46C67.8597 25.3267 68.1064 24.3267 68.5997 23.46C69.1064 22.5933 69.793 21.9267 70.6597 21.46C71.5264 20.98 72.493 20.74 73.5597 20.74C74.6264 20.74 75.593 20.98 76.4597 21.46C77.3264 21.9267 78.0064 22.5933 78.4997 23.46C79.0064 24.3267 79.2597 25.3267 79.2597 26.46C79.2597 27.5933 78.9997 28.5933 78.4797 29.46C77.973 30.3267 77.2797 31 76.3997 31.48C75.533 31.9467 74.5597 32.18 73.4797 32.18ZM73.4797 29.74C73.9864 29.74 74.4597 29.62 74.8997 29.38C75.353 29.1267 75.713 28.7533 75.9797 28.26C76.2464 27.7667 76.3797 27.1667 76.3797 26.46C76.3797 25.4067 76.0997 24.6 75.5397 24.04C74.993 23.4667 74.3197 23.18 73.5197 23.18C72.7197 23.18 72.0464 23.4667 71.4997 24.04C70.9664 24.6 70.6997 25.4067 70.6997 26.46C70.6997 27.5133 70.9597 28.3267 71.4797 28.9C72.013 29.46 72.6797 29.74 73.4797 29.74ZM85.6536 20.74C86.4803 20.74 87.2069 20.9067 87.8336 21.24C88.4603 21.56 88.9536 21.98 89.3136 22.5V20.92H92.1336V32.08C92.1336 33.1067 91.9269 34.02 91.5136 34.82C91.1003 35.6333 90.4803 36.2733 89.6536 36.74C88.8269 37.22 87.8269 37.46 86.6536 37.46C85.0803 37.46 83.7869 37.0933 82.7736 36.36C81.7736 35.6267 81.2069 34.6267 81.0736 33.36H83.8536C84.0003 33.8667 84.3136 34.2667 84.7936 34.56C85.2869 34.8667 85.8803 35.02 86.5736 35.02C87.3869 35.02 88.0469 34.7733 88.5536 34.28C89.0603 33.8 89.3136 33.0667 89.3136 32.08V30.36C88.9536 30.88 88.4536 31.3133 87.8136 31.66C87.1869 32.0067 86.4669 32.18 85.6536 32.18C84.7203 32.18 83.8669 31.94 83.0936 31.46C82.3203 30.98 81.7069 30.3067 81.2536 29.44C80.8136 28.56 80.5936 27.5533 80.5936 26.42C80.5936 25.3 80.8136 24.3067 81.2536 23.44C81.7069 22.5733 82.3136 21.9067 83.0736 21.44C83.8469 20.9733 84.7069 20.74 85.6536 20.74ZM89.3136 26.46C89.3136 25.78 89.1803 25.2 88.9136 24.72C88.6469 24.2267 88.2869 23.8533 87.8336 23.6C87.3803 23.3333 86.8936 23.2 86.3736 23.2C85.8536 23.2 85.3736 23.3267 84.9336 23.58C84.4936 23.8333 84.1336 24.2067 83.8536 24.7C83.5869 25.18 83.4536 25.7533 83.4536 26.42C83.4536 27.0867 83.5869 27.6733 83.8536 28.18C84.1336 28.6733 84.4936 29.0533 84.9336 29.32C85.3869 29.5867 85.8669 29.72 86.3736 29.72C86.8936 29.72 87.3803 29.5933 87.8336 29.34C88.2869 29.0733 88.6469 28.7 88.9136 28.22C89.1803 27.7267 89.3136 27.14 89.3136 26.46ZM99.7883 32.18C98.7216 32.18 97.7616 31.9467 96.9083 31.48C96.0549 31 95.3816 30.3267 94.8883 29.46C94.4083 28.5933 94.1683 27.5933 94.1683 26.46C94.1683 25.3267 94.4149 24.3267 94.9083 23.46C95.4149 22.5933 96.1016 21.9267 96.9683 21.46C97.8349 20.98 98.8016 20.74 99.8683 20.74C100.935 20.74 101.902 20.98 102.768 21.46C103.635 21.9267 104.315 22.5933 104.808 23.46C105.315 24.3267 105.568 25.3267 105.568 26.46C105.568 27.5933 105.308 28.5933 104.788 29.46C104.282 30.3267 103.588 31 102.708 31.48C101.842 31.9467 100.868 32.18 99.7883 32.18ZM99.7883 29.74C100.295 29.74 100.768 29.62 101.208 29.38C101.662 29.1267 102.022 28.7533 102.288 28.26C102.555 27.7667 102.688 27.1667 102.688 26.46C102.688 25.4067 102.408 24.6 101.848 24.04C101.302 23.4667 100.628 23.18 99.8283 23.18C99.0283 23.18 98.3549 23.4667 97.8083 24.04C97.2749 24.6 97.0083 25.4067 97.0083 26.46C97.0083 27.5133 97.2683 28.3267 97.7883 28.9C98.3216 29.46 98.9883 29.74 99.7883 29.74Z" fill="#1E1E1E"/>
<defs>
<clipPath id="clip0_8_2">
<rect width="24" height="24" fill="white" transform="translate(13 13)"/>
</clipPath>
</defs>
</svg>
